<?xml version="1.0" encoding="iso-8859-1"?>
<!-- Generator: Adobe Illustrator 19.0.0, SVG Export Plug-In . SVG Version: 6.00 Build 0)  -->
<svg version="1.1" id="Capa_1" xmlns="http://www.w3.org/2000/svg" xmlns:xlink="http://www.w3.org/1999/xlink" x="0px" y="0px"
	 viewBox="0 0 511.862 511.862" style="enable-background:new 0 0 511.862 511.862;" xml:space="preserve">
<polygon style="fill:#FFFFFF;" points="247.949,356.614 155.966,300.621 155.966,332.62 177.663,392.784 247.941,364.604 
	318.228,392.784 339.925,332.62 339.925,300.621 "/>
<path style="fill:#D7E9FF;" d="M247.668,51.942c77.261,0,139.962,36.396,139.962,127.966c0,91.581-86.695,175.956-139.962,175.956
	s-139.962-84.375-139.962-175.956C107.705,88.338,170.329,51.942,247.668,51.942z"/>
<g>
	<rect x="155.961" y="187.901" style="fill:#94C1FF;" width="71.981" height="31.991"/>
	<rect x="267.931" y="187.901" style="fill:#94C1FF;" width="71.98" height="31.991"/>
</g>
<path style="fill:#5C9EFF;" d="M491.869,443.84c0,31.992,0,63.983,0,63.983H295.921l11.434-15.996l40.553-47.987l-7.998-23.993
	l39.988-47.987l-17.158-17.151c18.072,7.92,69.465,28.828,81.141,33.147C475.872,399.774,491.869,411.849,491.869,443.84z"/>
<polygon style="fill:#94C1FF;" points="295.921,507.824 278.761,507.824 318.478,399.211 339.91,331.87 379.898,371.86 
	339.91,419.847 347.908,443.84 "/>
<path style="fill:#5C9EFF;" d="M3.999,443.84c0,31.992,0,63.983,0,63.983h195.947l-11.435-15.996L147.96,443.84l7.998-23.993
	l-39.989-47.987l17.16-17.151c-18.073,7.92-69.466,28.828-81.142,33.147C19.994,399.774,3.999,411.849,3.999,443.84z"/>
<polygon style="fill:#94C1FF;" points="199.946,507.824 217.106,507.824 177.389,399.211 155.958,331.87 115.969,371.86 
	155.958,419.847 147.96,443.84 "/>
<path style="fill:#2287FF;" d="M147.96,443.84l7.998-23.993l-39.989-47.987l17.16-17.151c-3.546,1.546-8.388,3.608-13.942,5.936
	l-11.215,11.216l39.989,47.987l-7.998,23.993l51.985,63.983h7.998L147.96,443.84z"/>
<path style="fill:#94C1FF;" d="M119.186,360.644c-22.775,9.544-57.812,23.736-67.2,27.212
	C19.994,399.774,3.999,411.849,3.999,443.84c0,31.992,0,63.983,0,63.983h15.996c0-16.823,0-27.626,0-47.987
	c0-31.991,15.996-44.066,47.987-55.985c7.092-2.624,29.898-11.825,49.932-20.057l-9.943-11.935L119.186,360.644z"/>
<g>
	<path style="fill:#2287FF;" d="M443.88,387.856c-9.387-3.476-44.426-17.668-67.199-27.212l11.215,11.216l-9.998,11.997
		c20.035,8.231,42.896,17.37,49.988,19.994c31.99,11.919,47.986,23.994,47.986,55.985c0,20.361,0,31.164,0,47.987h15.996
		c0,0,0-31.991,0-63.983C491.869,411.849,475.872,399.774,443.88,387.856z"/>
	<path style="fill:#2287FF;" d="M347.908,443.84l-7.998-23.993l39.988-47.987l-17.158-17.151c3.545,1.546,8.387,3.608,13.941,5.936
		l11.215,11.216l-39.988,47.987l7.996,23.993l-51.984,63.983h-7.998L347.908,443.84z"/>
</g>
<polygon style="fill:#D7E9FF;" points="247.933,363.862 318.228,392.784 278.761,507.824 217.106,507.824 177.109,392.299 "/>
<g>
	<polygon style="fill:#94C1FF;" points="267.929,403.851 227.939,403.851 214.864,377.093 247.933,363.862 281.011,377.093 	"/>
	<polygon style="fill:#94C1FF;" points="275.925,507.62 219.941,507.62 219.941,435.842 235.936,403.851 259.931,403.851 
		275.925,435.842 	"/>
</g>
<g>
	<polygon style="fill:#D7E9FF;" points="175.101,220.147 191.667,220.147 200.235,188.156 183.677,188.156 	"/>
	<polygon style="fill:#D7E9FF;" points="195.947,220.147 200.227,220.147 208.804,188.156 204.523,188.156 	"/>
	<polygon style="fill:#D7E9FF;" points="287.072,220.147 303.638,220.147 312.204,188.156 295.648,188.156 	"/>
	<polygon style="fill:#D7E9FF;" points="307.917,220.147 312.197,220.147 320.773,188.156 316.493,188.156 	"/>
</g>
<path style="fill:#94C1FF;" d="M108.213,168.309c34.495,10.614,84.927,19.597,135.722,19.597
	c54.563,0,108.667-10.357,143.086-21.971c-0.891-11.763-2.842-22.572-5.873-32.343h-7.045c-2.016-7.006-5.545-19.245-9.701-33.39
	c-22.291-29.984-58.719-44.777-100.824-47.675c-7.708,4.343-14.566,7.412-19.627,7.412c-4.854,0-11.31-2.757-18.628-6.811
	C161.89,59.44,112.845,93.907,108.213,168.309z"/>
<path style="fill:#FFFFFF;" d="M123.701,179.908c0-2.476,0.211-4.765,0.301-7.162c-5.549-1.43-10.845-2.913-15.789-4.437
	c-0.238,3.812-0.507,7.584-0.507,11.599c0,91.581,86.696,175.956,139.962,175.956c2.585,0,5.264-0.258,7.998-0.64
	C202.164,347.601,123.701,267.044,123.701,179.908z"/>
<g>
	<path style="fill:#94C1FF;" d="M371.243,170.769c0.156,3.03,0.391,5.975,0.391,9.138c0,87.137-78.463,167.693-131.964,175.316
		c2.726,0.382,5.405,0.64,7.998,0.64c53.267,0,139.962-84.375,139.962-175.956c0-4.835-0.266-9.443-0.609-13.973
		C382.14,167.582,376.869,169.2,371.243,170.769z"/>
	<path style="fill:#94C1FF;" d="M391.896,117.596H95.974c-24.916,4.921-31.984,3.327-31.984,10.325
		c0,15.465,89.406,43.988,179.944,43.988c90.553,0,179.952-28.523,179.952-43.988C423.886,120.923,416.81,122.517,391.896,117.596z"
		/>
	<path style="fill:#94C1FF;" d="M343.923,16.717c-12.871-39.958-75.979,27.227-99.973,27.227c-23.993,0-87.102-67.185-99.973-27.227
		c-12.262,38.06-31.992,107.205-31.992,107.205s63.983,15.996,131.965,15.996c67.981,0,131.965-15.996,131.965-15.996
		S356.185,54.777,343.923,16.717z"/>
</g>
<g>
	<path style="fill:#D7E9FF;" d="M243.95,123.922c-57.734,0-112.431-11.504-127.653-14.98c-2.636,9.107-4.312,14.98-4.312,14.98
		s63.983,15.996,131.965,15.996c67.981,0,131.965-15.996,131.965-15.996s-1.68-5.873-4.312-14.98
		C356.38,112.418,301.685,123.922,243.95,123.922z"/>
	<path style="fill:#D7E9FF;" d="M159.973,24.715c4.683-14.535,16.031-14.863,29.711-9.427c-20.346-11.762-39.282-18.511-45.707,1.43
		c-12.262,38.06-31.992,107.205-31.992,107.205s6.377,1.594,17.207,3.765C133.613,112.301,149.495,57.23,159.973,24.715z"/>
</g>
<path style="fill:#FFFFFF;" d="M112.899,124.141c0.43,0.109,1.023,0.25,1.761,0.422c0.195,0.047,0.453,0.102,0.668,0.148
	c0.64,0.148,1.41,0.328,2.23,0.508c0.383,0.086,0.75,0.172,1.175,0.266c1.054,0.234,2.257,0.492,3.538,0.773
	c0.597,0.125,1.246,0.257,1.89,0.39c0.945,0.203,1.968,0.414,3.007,0.625c0.672,0.14,1.312,0.273,2.023,0.414
	c0.96-3.351,2.492-8.661,4.366-15.128c-7.662-1.484-13.618-2.781-17.261-3.616c-1.148,3.959-2.097,7.256-2.819,9.779
	c-0.176,0.617-0.367,1.273-0.516,1.788c-0.07,0.25-0.145,0.508-0.211,0.734c-0.176,0.625-0.328,1.141-0.441,1.546
	c-0.109,0.375-0.191,0.672-0.246,0.859c-0.051,0.18-0.078,0.273-0.078,0.273s0.27,0.062,0.473,0.117
	C112.579,124.071,112.731,124.102,112.899,124.141z"/>
<path style="fill:#5C9EFF;" d="M327.919,24.715c-4.678-14.535-16.033-14.863-29.711-9.427c20.348-11.762,39.279-18.511,45.707,1.43
	c12.262,38.06,31.992,107.205,31.992,107.205s-6.381,1.594-17.207,3.765C354.281,112.301,338.394,57.23,327.919,24.715z"/>
<path style="fill:#94C1FF;" d="M371.603,108.942c-3.646,0.835-9.605,2.132-17.268,3.616c1.873,6.467,3.404,11.778,4.365,15.128
	c0.93-0.188,1.781-0.359,2.641-0.539c0.672-0.141,1.344-0.273,1.967-0.406c0.906-0.188,1.812-0.382,2.633-0.554
	c0.195-0.039,0.352-0.078,0.539-0.117c1.719-0.375,3.227-0.703,4.498-0.992c0.297-0.07,0.586-0.133,0.859-0.195
	c2.609-0.602,4.07-0.961,4.07-0.961S374.228,118.049,371.603,108.942z"/>
<rect x="398.866" y="440.614" transform="matrix(-0.7071 -0.7071 0.7071 -0.7071 377.1477 1053.9927)" style="fill:#FFFFFF;" width="15.993" height="16.546"/>
<path style="fill:#94C1FF;" d="M392.503,446.262l-41.09,41.082c-4.678,4.687-4.678,12.278,0.008,16.965
	c4.686,4.678,12.277,4.686,16.957,0l41.082-41.083L392.503,446.262z"/>
<path style="fill:#D7E9FF;" d="M491.462,443.442c-21.869,21.861-57.312,21.861-79.174,0c-21.861-21.869-21.869-57.312-0.008-79.182
	c21.869-21.861,57.312-21.861,79.182,0.008C513.324,386.129,513.331,421.573,491.462,443.442z"/>
<path style="fill:#FFFFFF;" d="M423.589,375.577c19.947-19.94,51.143-21.635,73.082-5.21c-1.586-2.116-3.287-4.178-5.209-6.1
	c-21.869-21.869-57.312-21.869-79.182-0.008c-21.861,21.869-21.854,57.312,0.008,79.182c1.928,1.922,3.982,3.617,6.1,5.21
	C401.97,426.712,403.658,395.51,423.589,375.577z"/>
<g>
	<path style="fill:#116FFF;" d="M247.933,359.864c-54.235,0-143.961-84.104-143.961-179.956c0-2.21,1.789-3.999,3.999-3.999
		s3.999,1.789,3.999,3.999c0,88.675,84.821,171.958,135.964,171.958c51.142,0,135.964-83.283,135.964-171.958
		c0-2.21,1.787-3.999,3.998-3.999s4,1.789,4,3.999C391.896,275.76,302.169,359.864,247.933,359.864z"/>
	<path style="fill:#116FFF;" d="M331.911,511.823H3.999c-2.21,0-3.999-1.789-3.999-3.999v-63.983
		c0-34.326,17.78-47.479,50.588-59.733c17.858-6.655,33.933-13.099,47.78-19.159c2.031-0.867,4.386,0.031,5.269,2.062
		c0.886,2.022-0.035,4.381-2.059,5.264c-13.984,6.123-30.199,12.621-48.194,19.331c-30.75,11.481-45.386,22.228-45.386,52.235
		v59.984h323.913c2.209,0,3.998,1.788,3.998,3.999C335.91,510.034,334.12,511.823,331.911,511.823z"/>
	<path style="fill:#116FFF;" d="M267.929,407.85h-39.99c-1.515,0-2.898-0.859-3.577-2.21l-7.998-15.996
		c-0.988-1.976-0.188-4.374,1.788-5.365c1.976-1,4.374-0.188,5.366,1.788l6.893,13.785h35.049l6.889-13.785
		c0.984-1.976,3.396-2.788,5.365-1.788c1.977,0.991,2.773,3.39,1.789,5.365l-7.998,15.996
		C270.826,406.991,269.443,407.85,267.929,407.85z"/>
	<path style="fill:#116FFF;" d="M219.941,447.839c-0.496,0-1-0.094-1.484-0.289c-2.05-0.819-3.05-3.147-2.229-5.193l15.995-39.989
		c0.816-2.055,3.171-3.055,5.198-2.227c2.05,0.82,3.05,3.148,2.229,5.194l-15.995,39.989
		C223.03,446.887,221.526,447.839,219.941,447.839z"/>
	<path style="fill:#116FFF;" d="M275.925,447.839c-1.584,0-3.092-0.952-3.717-2.515l-15.992-39.989
		c-0.82-2.046,0.18-4.374,2.23-5.194c2.027-0.82,4.381,0.172,5.197,2.227l16,39.989c0.812,2.046-0.188,4.374-2.234,5.193
		C276.925,447.745,276.425,447.839,275.925,447.839z"/>
	<path style="fill:#116FFF;" d="M307.324,495.827c-0.914,0-1.828-0.312-2.578-0.945c-1.686-1.429-1.904-3.951-0.475-5.639
		l39.137-46.27l-7.295-21.861c-0.438-1.312-0.164-2.765,0.719-3.826l37.662-45.184l-37.412-37.404c-1.562-1.562-1.562-4.092,0-5.654
		s4.092-1.562,5.654,0l39.99,39.989c1.469,1.46,1.57,3.796,0.25,5.39l-38.568,46.276l7.295,21.877
		c0.438,1.327,0.156,2.78-0.742,3.851l-40.582,47.986C309.589,495.342,308.456,495.827,307.324,495.827z"/>
	<path style="fill:#116FFF;" d="M283.923,495.827c-0.438,0-0.883-0.07-1.318-0.227c-2.086-0.727-3.18-3.007-2.461-5.092
		l55.984-159.957c0.734-2.078,3.016-3.195,5.1-2.453c2.086,0.727,3.18,3.007,2.461,5.093l-55.984,159.957
		C287.126,494.795,285.579,495.827,283.923,495.827z"/>
	<path style="fill:#116FFF;" d="M307.917,391.855c-0.5,0-1-0.094-1.484-0.289l-59.984-23.994c-2.05-0.819-3.05-3.147-2.229-5.193
		c0.816-2.055,3.151-3.054,5.198-2.227l59.984,23.994c2.047,0.819,3.045,3.147,2.234,5.193
		C311.011,390.902,309.503,391.855,307.917,391.855z"/>
	<path style="fill:#116FFF;" d="M188.547,495.827c-1.136,0-2.265-0.484-3.058-1.414l-40.583-47.986
		c-0.902-1.07-1.179-2.523-0.738-3.851l7.291-21.877l-38.564-46.276c-1.324-1.594-1.218-3.93,0.246-5.39l39.989-39.989
		c1.562-1.562,4.093-1.562,5.655,0s1.562,4.093,0,5.654l-37.408,37.404l37.654,45.184c0.886,1.062,1.16,2.515,0.718,3.826
		l-7.287,21.861l39.134,46.27c1.425,1.688,1.214,4.21-0.473,5.639C190.375,495.514,189.457,495.827,188.547,495.827z"/>
	<path style="fill:#116FFF;" d="M211.943,495.827c-1.652,0-3.198-1.031-3.776-2.679l-55.986-159.957
		c-0.726-2.086,0.371-4.366,2.457-5.093c2.089-0.742,4.37,0.375,5.096,2.453l55.985,159.957c0.726,2.085-0.371,4.365-2.457,5.092
		C212.826,495.756,212.381,495.827,211.943,495.827z"/>
	<path style="fill:#116FFF;" d="M187.95,391.855c-1.585,0-3.089-0.953-3.714-2.516c-0.82-2.046,0.18-4.374,2.23-5.193l59.983-23.994
		c2.027-0.819,4.382,0.172,5.198,2.227c0.82,2.046-0.18,4.374-2.23,5.193l-59.984,23.994
		C188.949,391.761,188.445,391.855,187.95,391.855z"/>
	<path style="fill:#116FFF;" d="M247.933,495.827c-2.21,0-3.999-1.789-3.999-3.999v-63.982c0-2.211,1.789-3.999,3.999-3.999
		c2.21,0,3.999,1.788,3.999,3.999v63.982C251.932,494.037,250.143,495.827,247.933,495.827z"/>
	<path style="fill:#116FFF;" d="M243.934,175.909c-82.517,0-183.943-26.462-183.943-47.987c0-8.474,6.569-9.497,18.491-11.356
		c4.358-0.679,9.857-1.538,16.718-2.89c2.159-0.477,4.265,0.977,4.698,3.147c0.425,2.164-0.984,4.272-3.152,4.694
		c-6.99,1.382-12.59,2.257-17.031,2.952c-5.33,0.828-10.837,1.688-11.641,2.625l0,0c0.004,0-0.086,0.21-0.086,0.828
		c0,9.505,81.154,39.989,175.945,39.989c94.795,0,175.954-30.484,175.954-39.989c0-0.64-0.094-0.835-0.094-0.843
		c-0.797-0.921-6.303-1.781-11.639-2.609c-4.436-0.695-10.043-1.57-17.033-2.952c-2.164-0.422-3.578-2.53-3.148-4.694
		c0.422-2.171,2.523-3.616,4.693-3.147c6.865,1.352,12.365,2.21,16.723,2.89c11.926,1.859,18.496,2.882,18.496,11.356
		C427.886,149.447,326.458,175.909,243.934,175.909z"/>
	<path style="fill:#116FFF;" d="M243.934,143.917c-67.692,0-132.289-15.957-132.933-16.113c-1.054-0.266-1.953-0.945-2.496-1.882
		c-0.539-0.938-0.679-2.055-0.382-3.093c0.199-0.695,19.889-69.653,32.03-107.338c2.378-7.381,6.53-12.184,12.34-14.285
		c14.672-5.272,35.998,8.264,56.622,21.369c13.441,8.537,27.34,17.371,34.818,17.371c2.21,0,3.999,1.789,3.999,3.999
		c0,2.211-1.789,3.999-3.999,3.999c-9.802,0-23.384-8.63-39.11-18.62C186.707,17.82,166.161,4.8,155.211,8.728
		c-3.409,1.234-5.846,4.249-7.443,9.216c-10.408,32.296-26.395,87.71-30.8,103.042c15.039,3.421,69.907,14.934,126.966,14.934
		c2.21,0,3.999,1.789,3.999,3.999C247.933,142.128,246.145,143.917,243.934,143.917z"/>
	<path style="fill:#116FFF;" d="M243.934,143.917c-2.21,0-3.999-1.789-3.999-3.999c0-2.21,1.789-3.999,3.999-3.999
		c57.063,0,111.922-11.513,126.965-14.934c-4.404-15.332-20.393-70.747-30.803-103.042c-1.594-4.967-4.031-7.982-7.436-9.216
		c-10.959-3.929-31.492,9.091-49.613,20.596c-15.729,9.99-29.312,18.62-39.114,18.62c-2.21,0-3.999-1.788-3.999-3.999
		c0-2.21,1.789-3.999,3.999-3.999c7.479,0,21.377-8.833,34.819-17.371c20.636-13.113,41.966-26.656,56.626-21.369
		c5.811,2.101,9.959,6.904,12.342,14.285c12.137,37.686,31.826,106.644,32.021,107.338c0.297,1.039,0.156,2.156-0.375,3.093
		c-0.547,0.937-1.445,1.616-2.498,1.882C376.228,127.96,311.628,143.917,243.934,143.917z"/>
	<path style="fill:#116FFF;" d="M243.934,127.921c-45.707,0-90.206-7.553-112.661-12.059c-2.167-0.437-3.569-2.539-3.136-4.709
		c0.434-2.164,2.554-3.585,4.706-3.132c22.166,4.444,66.076,11.903,111.091,11.903c45.004,0,88.915-7.459,111.081-11.903
		c2.17-0.445,4.271,0.968,4.709,3.132c0.43,2.171-0.969,4.272-3.133,4.709C334.128,120.369,289.634,127.921,243.934,127.921z"/>
	<path style="fill:#116FFF;" d="M387.896,183.907c-2.211,0-3.998-1.789-3.998-3.999v-7.998c0-2.21,1.787-3.999,3.998-3.999
		s4,1.789,4,3.999v7.998C391.896,182.118,390.107,183.907,387.896,183.907z"/>
	<path style="fill:#116FFF;" d="M107.971,183.907c-2.21,0-3.999-1.789-3.999-3.999v-7.998c0-2.21,1.789-3.999,3.999-3.999
		s3.999,1.789,3.999,3.999v7.998C111.97,182.118,110.181,183.907,107.971,183.907z"/>
	<path style="fill:#116FFF;" d="M219.941,223.888h-55.985c-6.615,0-11.997-5.382-11.997-11.997v-15.996
		c0-6.616,5.382-11.997,11.997-11.997h55.985c6.615,0,11.996,5.381,11.996,11.997v15.996
		C231.937,218.506,226.556,223.888,219.941,223.888z M163.956,191.896c-2.206,0-3.999,1.796-3.999,3.999v15.996
		c0,2.203,1.793,3.999,3.999,3.999h55.985c2.206,0,3.999-1.796,3.999-3.999v-15.996c0-2.203-1.792-3.999-3.999-3.999H163.956z"/>
	<path style="fill:#116FFF;" d="M331.911,223.888h-55.986c-6.615,0-11.996-5.382-11.996-11.997v-15.996
		c0-6.616,5.381-11.997,11.996-11.997h55.986c6.615,0,11.996,5.381,11.996,11.997v15.996
		C343.908,218.506,338.527,223.888,331.911,223.888z M275.925,191.896c-2.201,0-3.998,1.796-3.998,3.999v15.996
		c0,2.203,1.797,3.999,3.998,3.999h55.986c2.201,0,3.998-1.796,3.998-3.999v-15.996c0-2.203-1.797-3.999-3.998-3.999H275.925z"/>
	<path style="fill:#116FFF;" d="M267.929,208.134h-39.998c-2.21,0-3.999-1.788-3.999-3.999c0-2.21,1.789-3.999,3.999-3.999h39.998
		c2.209,0,3.998,1.789,3.998,3.999C271.927,206.346,270.138,208.134,267.929,208.134z"/>
	<path style="fill:#116FFF;" d="M451.894,463.835v-3.999l-0.031,3.999c-16.02,0-31.084-6.241-42.41-17.565
		c-11.324-11.333-17.557-26.392-17.557-42.419c0-33.069,26.906-59.976,59.982-59.983c33.078,0.008,59.984,26.914,59.984,59.983
		C511.863,436.928,484.964,463.835,451.894,463.835z M451.878,351.866c-28.664,0.008-51.986,23.329-51.986,51.985
		c0,13.888,5.406,26.946,15.223,36.764c9.818,9.817,22.861,15.223,36.748,15.223h0.031c28.656,0,51.971-23.321,51.971-51.986
		C503.865,375.195,480.542,351.873,451.878,351.866z"/>
	<path style="fill:#116FFF;" d="M400.986,447.441c-1.023,0-2.045-0.39-2.826-1.171c-1.562-1.562-1.562-4.093,0-5.655l6.053-6.053
		c1.562-1.562,4.092-1.562,5.654,0c1.562,1.562,1.562,4.093,0,5.654l-6.053,6.054C403.033,447.051,402.009,447.441,400.986,447.441z
		"/>
	<path style="fill:#116FFF;" d="M412.296,458.75c-1.023,0-2.047-0.391-2.828-1.172c-1.562-1.562-1.562-4.092,0-5.654l6.061-6.053
		c1.562-1.562,4.094-1.562,5.654,0c1.562,1.562,1.562,4.093,0,5.654l-6.061,6.053C414.341,458.36,413.32,458.75,412.296,458.75z"/>
	<path style="fill:#116FFF;" d="M409.468,467.233c-1.023,0-2.047-0.391-2.828-1.172l-16.963-16.964
		c-1.562-1.562-1.562-4.093,0-5.655s4.092-1.562,5.654,0l16.965,16.965c1.561,1.562,1.561,4.093,0,5.654
		C411.515,466.842,410.492,467.233,409.468,467.233z"/>
	<path style="fill:#116FFF;" d="M368.386,508.315c-1.023,0-2.047-0.39-2.828-1.171c-1.562-1.562-1.562-4.093,0-5.655l41.082-41.082
		c1.562-1.562,4.094-1.562,5.656,0c1.561,1.562,1.561,4.093,0,5.654l-41.084,41.083C370.431,507.925,369.41,508.315,368.386,508.315
		z"/>
	<path style="fill:#116FFF;" d="M392.535,450.244c-1.123,0-2.154-0.397-2.881-1.202c-0.719-0.719-1.117-1.679-1.117-2.796
		c0-1.039,0.398-2.078,1.117-2.797c1.445-1.444,4.162-1.522,5.678,0c0.719,0.797,1.203,1.758,1.203,2.797s-0.406,2.077-1.125,2.796
		C394.535,449.847,393.574,450.244,392.535,450.244z"/>
	<path style="fill:#116FFF;" d="M351.421,491.351c-1.023,0-2.047-0.39-2.828-1.171c-1.561-1.562-1.561-4.093,0-5.655l41.084-41.083
		c1.562-1.562,4.092-1.562,5.654,0c1.562,1.562,1.562,4.093,0,5.655l-41.082,41.083
		C353.468,490.961,352.445,491.351,351.421,491.351z"/>
	<path style="fill:#116FFF;" d="M359.904,511.83c-4.273,0-8.287-1.664-11.311-4.687c-3.021-3.022-4.686-7.037-4.686-11.31
		c0-4.28,1.664-8.295,4.686-11.31c1.562-1.562,4.094-1.562,5.656,0c1.561,1.562,1.561,4.101,0,5.655
		c-1.516,1.507-2.344,3.515-2.344,5.654c0,2.133,0.828,4.14,2.344,5.654c3.021,3.016,8.295,3.031,11.309,0
		c1.562-1.562,4.094-1.562,5.654,0c1.562,1.555,1.562,4.093,0,5.655C368.199,510.166,364.183,511.83,359.904,511.83z"/>
</g>
<g>
</g>
<g>
</g>
<g>
</g>
<g>
</g>
<g>
</g>
<g>
</g>
<g>
</g>
<g>
</g>
<g>
</g>
<g>
</g>
<g>
</g>
<g>
</g>
<g>
</g>
<g>
</g>
<g>
</g>
</svg>
