<?xml version="1.0" encoding="iso-8859-1"?>
<!-- Generator: Adobe Illustrator 19.0.0, SVG Export Plug-In . SVG Version: 6.00 Build 0)  -->
<svg version="1.1" id="Capa_1" xmlns="http://www.w3.org/2000/svg" xmlns:xlink="http://www.w3.org/1999/xlink" x="0px" y="0px"
	 viewBox="0 0 512 512" style="enable-background:new 0 0 512 512;" xml:space="preserve">
<path style="fill:#57555C;" d="M286,0c-73.801,0-140.4,40.8-174,106.5c-1.5,3.6-20.4,143.101-21,147.001V315c0,8.399,6.599,15,15,15
	h60c8.401,0,15-6.601,15-15V197.1l15.3-56.1c18.6-31.5,52.8-51,89.7-51c57.9,0,105,47.1,105,105v120c0,8.399,6.599,15,15,15h60
	c8.401,0,15-6.601,15-15V195C481,87.599,393.401,0,286,0z"/>
<path style="fill:#FEA832;" d="M339,167.999l-60-45c-2.699-1.8-5.7-2.999-9-2.999H157.2c-0.3-0.3-0.899-0.901-1.199-1.5
	C140.099,101.4,116.4,90,90,90c-49.501,0-90,40.499-90,90c0,49.499,40.499,90,90,90c38.101,0,71.7-24.3,84.6-59.101l24.901,24.6
	c5.7,6,15.298,6,20.999,0l19.501-19.2l19.501,19.2c5.099,5.4,13.499,6,19.499,1.5l60-45c3.9-2.699,6-7.2,6-11.999
	C345,175.199,342.9,170.7,339,167.999z"/>
<path style="fill:#3C3A41;" d="M481,195v120c0,8.399-6.599,15-15,15h-60c-8.401,0-15-6.601-15-15V195c0-57.9-47.1-105-105-105V0
	C393.401,0,481,87.599,481,195z"/>
<path style="fill:#FE8821;" d="M345,180c0,4.799-2.1,9.3-6,11.999l-60,45c-6,4.501-14.399,3.9-19.499-1.5L240,216.299l-19.501,19.2
	c-5.7,6-15.298,6-20.999,0l-24.901-24.6C161.7,245.7,128.101,270,90,270c-49.501,0-90-40.501-90-90H345z"/>
<path style="fill:#FEDB41;" d="M466,300H106c-24.901,0-45,20.099-45,45v122c0,24.899,20.099,45,45,45h360c24.901,0,46-20.101,46-45
	V345C512,320.099,490.901,300,466,300z"/>
<path style="fill:#FCBF29;" d="M512,345v122c0,24.899-21.099,45-46,45H286V300h180C490.901,300,512,320.099,512,345z"/>
<rect x="257.8" y="375.6" style="fill:#787780;" width="179.4" height="60.2"/>
<rect x="286" y="375.6" style="fill:#57555C;" width="151.2" height="60.2"/>
<path style="fill:#FEA832;" d="M436,360H256c-8.401,0-15,6.599-15,15v62c0,8.399,6.599,15,15,15h180c8.401,0,15-6.601,15-15v-62
	C451,366.599,444.401,360,436,360z M301,422h-30v-32h30V422z M361,422h-30v-32h30V422z M421,422h-30v-32h30V422z"/>
<path style="fill:#FE8821;" d="M436,360H286v30h15v32h-15v30h150c8.401,0,15-6.601,15-15v-62C451,366.599,444.401,360,436,360z
	 M361,422h-30v-32h30V422z M421,422h-30v-32h30V422z"/>
<path style="fill:#57555C;" d="M103.801,180c-0.3,3.6-1.501,6.899-4.2,9.6c-6,5.7-15.3,5.7-21.301,0c-2.399-2.701-3.9-6-3.9-9.6
	c-0.599-4.2,0.601-8.401,3.9-11.7c6-5.7,15.3-5.7,21.301,0C102.599,171.599,104.099,175.8,103.801,180z"/>
<path style="fill:#3C3A41;" d="M103.801,180c-0.3,3.6-1.501,6.899-4.2,9.6c-6,5.7-15.3,5.7-21.301,0c-2.399-2.701-3.9-6-3.9-9.6
	H103.801z"/>
<g>
</g>
<g>
</g>
<g>
</g>
<g>
</g>
<g>
</g>
<g>
</g>
<g>
</g>
<g>
</g>
<g>
</g>
<g>
</g>
<g>
</g>
<g>
</g>
<g>
</g>
<g>
</g>
<g>
</g>
</svg>
